# This file uses centimeters as units for non-parametric coordinates.

mtllib axe.mtl
g default
v -7.572357 2.960198 -0.561766
v -7.450931 2.892481 -0.543622
v -7.454996 3.156548 -0.614378
v -7.333569 3.088831 -0.596234
v -7.572357 1.948602 -4.337094
v -7.450931 1.880886 -4.318949
v -7.333569 2.077235 -4.371561
v -7.454996 2.144952 -4.389706
v -7.867947 2.136037 -1.487210
v -7.798924 2.097545 -1.476896
v -7.867947 2.267579 -0.996290
v -7.798924 2.229086 -0.985976
v -7.867947 2.399120 -0.505371
v -7.798924 2.360628 -0.495057
v -7.867947 2.530662 -0.014451
v -7.798924 2.492169 -0.004137
v -7.733898 2.688391 -0.322872
v -7.664875 2.649898 -0.312558
v -7.599850 2.846119 -0.631291
v -7.530826 2.807627 -0.620977
v -7.465801 3.070388 -0.691384
v -7.396778 3.031895 -0.681070
v -7.331752 3.288319 -0.775127
v -7.262729 3.249826 -0.764813
v -7.197703 3.480901 -0.953471
v -7.128680 3.442409 -0.943157
v -7.197703 3.463427 -1.018686
v -7.128680 3.424934 -1.008372
v -7.197703 3.445952 -1.083901
v -7.128680 3.407460 -1.073587
v -7.197703 3.428478 -1.149115
v -7.128680 3.389986 -1.138801
v -7.331752 3.172525 -1.207273
v -7.262729 3.134033 -1.196959
v -7.465801 2.941920 -1.170832
v -7.396778 2.903428 -1.160518
v -7.599850 2.717652 -1.110739
v -7.530826 2.679159 -1.100425
v -7.733898 2.426845 -1.298975
v -7.664875 2.388352 -1.288661
v -7.262729 3.172630 -1.052910
v -7.396778 2.946250 -1.000702
v -7.530826 2.721982 -0.940609
v -7.664875 2.475534 -0.963294
v -7.262729 3.211228 -0.908862
v -7.396778 2.989072 -0.840887
v -7.530826 2.764804 -0.780794
v -7.664875 2.562716 -0.637926
v -7.331752 3.211123 -1.063224
v -7.465801 2.984743 -1.011016
v -7.599850 2.760474 -0.950923
v -7.733898 2.514027 -0.973608
v -7.331752 3.249721 -0.919176
v -7.465801 3.027565 -0.851201
v -7.599850 2.803297 -0.791108
v -7.733898 2.601209 -0.648240
v -7.572357 1.948602 -4.337094
v -7.450931 1.880885 -4.318949
v -7.454996 2.144952 -4.389706
v -7.333569 2.077235 -4.371561
vt 0.375000 0.000000
vt 0.625000 0.000000
vt 0.625000 0.250000
vt 0.375000 0.250000
vt 0.625000 0.500000
vt 0.375000 0.500000
vt 0.625000 0.750000
vt 0.375000 0.750000
vt 0.875000 0.000000
vt 0.875000 0.250000
vt 0.125000 0.000000
vt 0.125000 0.250000
vt 0.375000 0.000000
vt 0.625000 0.000000
vt 0.625000 0.083333
vt 0.375000 0.083333
vt 0.625000 0.166667
vt 0.375000 0.166667
vt 0.625000 0.250000
vt 0.375000 0.250000
vt 0.625000 0.300000
vt 0.375000 0.300000
vt 0.625000 0.350000
vt 0.375000 0.350000
vt 0.625000 0.400000
vt 0.375000 0.400000
vt 0.625000 0.450000
vt 0.375000 0.450000
vt 0.625000 0.500000
vt 0.375000 0.500000
vt 0.625000 0.583333
vt 0.375000 0.583333
vt 0.625000 0.666667
vt 0.375000 0.666667
vt 0.625000 0.750000
vt 0.375000 0.750000
vt 0.625000 0.800000
vt 0.375000 0.800000
vt 0.625000 0.850000
vt 0.375000 0.850000
vt 0.625000 0.900000
vt 0.375000 0.900000
vt 0.625000 0.950000
vt 0.375000 0.950000
vt 0.625000 1.000000
vt 0.375000 1.000000
vt 0.825000 0.000000
vt 0.875000 0.000000
vt 0.875000 0.083333
vt 0.825000 0.083333
vt 0.775000 0.000000
vt 0.775000 0.083333
vt 0.725000 0.000000
vt 0.725000 0.083333
vt 0.675000 0.000000
vt 0.675000 0.083333
vt 0.875000 0.166667
vt 0.825000 0.166667
vt 0.775000 0.166667
vt 0.725000 0.166667
vt 0.675000 0.166667
vt 0.875000 0.250000
vt 0.825000 0.250000
vt 0.775000 0.250000
vt 0.725000 0.250000
vt 0.675000 0.250000
vt 0.125000 0.000000
vt 0.175000 0.000000
vt 0.175000 0.083333
vt 0.125000 0.083333
vt 0.225000 0.000000
vt 0.225000 0.083333
vt 0.275000 0.000000
vt 0.275000 0.083333
vt 0.325000 0.000000
vt 0.325000 0.083333
vt 0.175000 0.166667
vt 0.125000 0.166667
vt 0.225000 0.166667
vt 0.275000 0.166667
vt 0.325000 0.166667
vt 0.175000 0.250000
vt 0.125000 0.250000
vt 0.225000 0.250000
vt 0.275000 0.250000
vt 0.325000 0.250000
vt 0.375000 0.750000
vt 0.625000 0.750000
vt 0.625000 1.000000
vt 0.375000 1.000000
vn -0.500000 -0.836516 0.224144
vn -0.500000 -0.836516 0.224144
vn -0.500000 -0.836516 0.224144
vn -0.500000 -0.836516 0.224144
vn 0.000001 0.258821 0.965925
vn 0.000001 0.258821 0.965925
vn 0.000001 0.258821 0.965925
vn 0.000001 0.258821 0.965925
vn 0.500000 0.836516 -0.224144
vn 0.500000 0.836516 -0.224144
vn 0.500000 0.836516 -0.224144
vn 0.500000 0.836516 -0.224144
vn 0.866026 -0.482963 0.129410
vn 0.866026 -0.482963 0.129410
vn 0.866026 -0.482963 0.129410
vn 0.866026 -0.482963 0.129410
vn -0.866025 0.482964 -0.129409
vn -0.866025 0.482964 -0.129409
vn -0.866025 0.482964 -0.129409
vn -0.866025 0.482964 -0.129409
vn -0.499998 -0.836518 0.224142
vn -0.499998 -0.836518 0.224142
vn -0.499999 -0.836517 0.224143
vn -0.499999 -0.836517 0.224143
vn -0.499999 -0.836517 0.224143
vn -0.499999 -0.836517 0.224143
vn -0.499999 -0.836517 0.224144
vn -0.499999 -0.836517 0.224144
vn -0.499999 -0.836517 0.224144
vn -0.499999 -0.836517 0.224144
vn -0.499998 -0.836517 0.224144
vn -0.499998 -0.836517 0.224144
vn 0.346067 0.765788 0.542039
vn 0.346067 0.765788 0.542039
vn 0.346066 0.765787 0.542042
vn 0.346066 0.765787 0.542042
vn 0.346066 0.765787 0.542042
vn 0.346066 0.765787 0.542042
vn 0.216170 0.595038 0.774080
vn 0.216170 0.595038 0.774080
vn 0.216170 0.595038 0.774080
vn 0.216170 0.595038 0.774080
vn 0.022810 0.296709 0.954695
vn 0.022810 0.296709 0.954696
vn 0.022810 0.296709 0.954696
vn 0.022810 0.296709 0.954695
vn 0.132123 0.470663 0.872364
vn 0.132123 0.470663 0.872365
vn 0.132123 0.470663 0.872365
vn 0.132123 0.470663 0.872364
vn 0.207690 0.582905 0.785548
vn 0.207690 0.582905 0.785548
vn 0.500000 0.836518 -0.224138
vn 0.500000 0.836518 -0.224138
vn 0.500000 0.836516 -0.224146
vn 0.500000 0.836516 -0.224146
vn 0.500000 0.836516 -0.224146
vn 0.500000 0.836516 -0.224146
vn 0.500000 0.836515 -0.224150
vn 0.500000 0.836515 -0.224150
vn 0.500000 0.836515 -0.224150
vn 0.500000 0.836515 -0.224150
vn 0.500000 0.836516 -0.224146
vn 0.500000 0.836516 -0.224146
vn 0.207686 0.112033 -0.971759
vn 0.207686 0.112033 -0.971759
vn 0.132121 -0.028575 -0.990822
vn 0.132121 -0.028575 -0.990822
vn 0.132121 -0.028575 -0.990822
vn 0.132121 -0.028575 -0.990822
vn 0.022808 -0.220390 -0.975145
vn 0.022808 -0.220390 -0.975145
vn 0.022808 -0.220390 -0.975145
vn 0.022808 -0.220390 -0.975145
vn 0.216169 0.128279 -0.967892
vn 0.216169 0.128279 -0.967892
vn 0.216169 0.128279 -0.967892
vn 0.216169 0.128279 -0.967892
vn 0.346065 0.392170 -0.852316
vn 0.346065 0.392170 -0.852315
vn 0.346065 0.392170 -0.852315
vn 0.346065 0.392170 -0.852316
vn 0.346065 0.392168 -0.852316
vn 0.346065 0.392168 -0.852316
vn 0.866025 -0.482964 0.129410
vn 0.866025 -0.482964 0.129410
vn 0.866025 -0.482964 0.129411
vn 0.866025 -0.482964 0.129410
vn 0.866026 -0.482963 0.129409
vn 0.866025 -0.482964 0.129410
vn 0.866025 -0.482964 0.129410
vn 0.866025 -0.482963 0.129409
vn 0.866026 -0.482963 0.129408
vn 0.866026 -0.482963 0.129409
vn 0.866025 -0.482963 0.129409
vn 0.866026 -0.482962 0.129409
vn 0.866025 -0.482963 0.129410
vn 0.866026 -0.482963 0.129408
vn 0.866026 -0.482962 0.129409
vn 0.866026 -0.482963 0.129410
vn 0.866025 -0.482964 0.129410
vn 0.866025 -0.482963 0.129410
vn 0.866026 -0.482963 0.129410
vn 0.866025 -0.482963 0.129410
vn 0.866025 -0.482964 0.129410
vn 0.866025 -0.482964 0.129411
vn 0.866025 -0.482963 0.129410
vn 0.866025 -0.482964 0.129410
vn 0.866025 -0.482963 0.129409
vn 0.866025 -0.482964 0.129410
vn 0.866025 -0.482964 0.129410
vn 0.866025 -0.482963 0.129410
vn 0.866026 -0.482962 0.129409
vn 0.866025 -0.482963 0.129409
vn 0.866025 -0.482963 0.129410
vn 0.866026 -0.482963 0.129410
vn 0.866026 -0.482963 0.129410
vn 0.866026 -0.482962 0.129409
vn 0.866026 -0.482963 0.129410
vn 0.866025 -0.482963 0.129409
vn 0.866025 -0.482963 0.129410
vn 0.866026 -0.482963 0.129410
vn 0.866025 -0.482963 0.129409
vn 0.866025 -0.482963 0.129410
vn 0.866025 -0.482964 0.129410
vn 0.866025 -0.482963 0.129410
vn 0.866025 -0.482963 0.129409
vn 0.866025 -0.482963 0.129410
vn 0.866025 -0.482963 0.129410
vn 0.866025 -0.482964 0.129410
vn 0.866025 -0.482963 0.129410
vn 0.866025 -0.482963 0.129410
vn 0.866026 -0.482963 0.129410
vn 0.866025 -0.482963 0.129410
vn 0.866025 -0.482963 0.129410
vn 0.866025 -0.482963 0.129409
vn 0.866025 -0.482963 0.129409
vn 0.866026 -0.482963 0.129410
vn 0.866025 -0.482963 0.129409
vn 0.866025 -0.482964 0.129410
vn 0.866025 -0.482963 0.129410
vn 0.866025 -0.482963 0.129409
vn 0.866025 -0.482964 0.129410
vn 0.866025 -0.482964 0.129410
vn -0.866025 0.482965 -0.129408
vn -0.866025 0.482964 -0.129409
vn -0.866025 0.482964 -0.129409
vn -0.866025 0.482964 -0.129409
vn -0.866025 0.482964 -0.129409
vn -0.866026 0.482962 -0.129410
vn -0.866026 0.482963 -0.129409
vn -0.866025 0.482964 -0.129409
vn -0.866026 0.482962 -0.129410
vn -0.866026 0.482962 -0.129410
vn -0.866026 0.482962 -0.129409
vn -0.866026 0.482963 -0.129409
vn -0.866026 0.482962 -0.129410
vn -0.866025 0.482963 -0.129409
vn -0.866025 0.482963 -0.129409
vn -0.866026 0.482962 -0.129409
vn -0.866025 0.482963 -0.129409
vn -0.866025 0.482963 -0.129409
vn -0.866025 0.482963 -0.129409
vn -0.866025 0.482963 -0.129409
vn -0.866025 0.482964 -0.129409
vn -0.866025 0.482964 -0.129409
vn -0.866025 0.482964 -0.129410
vn -0.866025 0.482963 -0.129410
vn -0.866025 0.482964 -0.129409
vn -0.866026 0.482963 -0.129409
vn -0.866025 0.482963 -0.129409
vn -0.866025 0.482964 -0.129410
vn -0.866026 0.482963 -0.129409
vn -0.866026 0.482962 -0.129409
vn -0.866026 0.482962 -0.129409
vn -0.866025 0.482963 -0.129409
vn -0.866026 0.482962 -0.129409
vn -0.866025 0.482963 -0.129409
vn -0.866025 0.482963 -0.129409
vn -0.866026 0.482962 -0.129409
vn -0.866025 0.482963 -0.129409
vn -0.866025 0.482963 -0.129409
vn -0.866025 0.482964 -0.129409
vn -0.866025 0.482963 -0.129409
vn -0.866025 0.482963 -0.129410
vn -0.866025 0.482964 -0.129410
vn -0.866025 0.482964 -0.129411
vn -0.866025 0.482962 -0.129411
vn -0.866025 0.482964 -0.129410
vn -0.866025 0.482963 -0.129409
vn -0.866025 0.482963 -0.129410
vn -0.866025 0.482964 -0.129411
vn -0.866025 0.482963 -0.129409
vn -0.866026 0.482962 -0.129409
vn -0.866026 0.482962 -0.129409
vn -0.866025 0.482963 -0.129410
vn -0.866026 0.482962 -0.129409
vn -0.866025 0.482963 -0.129409
vn -0.866025 0.482964 -0.129409
vn -0.866026 0.482962 -0.129409
vn -0.866025 0.482963 -0.129409
vn -0.866025 0.482964 -0.129409
vn -0.866025 0.482964 -0.129409
vn -0.866025 0.482964 -0.129409
vn 0.000000 -0.258819 -0.965926
vn 0.000000 -0.258819 -0.965926
vn 0.000000 -0.258819 -0.965926
vn 0.000000 -0.258819 -0.965926
s off
g polySurface7
usemtl pCube7SG
f 5/1/1 6/2/2 2/3/3 1/4/4
f 1/4/5 2/3/6 4/5/7 3/6/8
f 3/6/9 4/5/10 7/7/11 8/8/12
f 6/2/13 7/9/14 4/10/15 2/3/16
f 8/11/17 5/1/18 1/4/19 3/12/20
f 9/13/21 10/14/22 12/15/23 11/16/24
f 11/16/25 12/15/26 14/17/27 13/18/28
f 13/18/29 14/17/30 16/19/31 15/20/32
f 15/20/33 16/19/34 18/21/35 17/22/36
f 17/22/37 18/21/38 20/23/39 19/24/40
f 19/24/41 20/23/42 22/25/43 21/26/44
f 21/26/45 22/25/46 24/27/47 23/28/48
f 23/28/49 24/27/50 26/29/51 25/30/52
f 25/30/53 26/29/54 28/31/55 27/32/56
f 27/32/57 28/31/58 30/33/59 29/34/60
f 29/34/61 30/33/62 32/35/63 31/36/64
f 31/36/65 32/35/66 34/37/67 33/38/68
f 33/38/69 34/37/70 36/39/71 35/40/72
f 35/40/73 36/39/74 38/41/75 37/42/76
f 37/42/77 38/41/78 40/43/79 39/44/80
f 39/44/81 40/43/82 10/45/83 9/46/84
f 34/47/85 32/48/86 30/49/87 41/50/88
f 36/51/89 34/47/90 41/50/91 42/52/92
f 38/53/93 36/51/94 42/52/95 43/54/96
f 40/55/97 38/53/98 43/54/99 44/56/100
f 10/14/101 40/55/102 44/56/103 12/15/104
f 41/50/105 30/49/106 28/57/107 45/58/108
f 42/52/109 41/50/110 45/58/111 46/59/112
f 43/54/113 42/52/114 46/59/115 47/60/116
f 44/56/117 43/54/118 47/60/119 48/61/120
f 12/15/121 44/56/122 48/61/123 14/17/124
f 45/58/125 28/57/126 26/62/127 24/63/128
f 46/59/129 45/58/130 24/63/131 22/64/132
f 47/60/133 46/59/134 22/64/135 20/65/136
f 48/61/137 47/60/138 20/65/139 18/66/140
f 14/17/141 48/61/142 18/66/143 16/19/144
f 31/67/145 33/68/146 49/69/147 29/70/148
f 33/68/149 35/71/150 50/72/151 49/69/152
f 35/71/153 37/73/154 51/74/155 50/72/156
f 37/73/157 39/75/158 52/76/159 51/74/160
f 39/75/161 9/13/162 11/16/163 52/76/164
f 29/70/165 49/69/166 53/77/167 27/78/168
f 49/69/169 50/72/170 54/79/171 53/77/172
f 50/72/173 51/74/174 55/80/175 54/79/176
f 51/74/177 52/76/178 56/81/179 55/80/180
f 52/76/181 11/16/182 13/18/183 56/81/184
f 27/78/185 53/77/186 23/82/187 25/83/188
f 53/77/189 54/79/190 21/84/191 23/82/192
f 54/79/193 55/80/194 19/85/195 21/84/196
f 55/80/197 56/81/198 17/86/199 19/85/200
f 56/81/201 13/18/202 15/20/203 17/86/204
f 59/87/205 60/88/206 58/89/207 57/90/208
